<svg xmlns="http://www.w3.org/2000/svg" viewBox="0 0 192 192">
  <rect width="192" height="192" rx="36" fill="#4A7C59"/>
  <g transform="translate(96 96)" fill="#D4A843" stroke="#8B5E3C" stroke-width="3">
    <rect x="-3" y="-56" width="6" height="104" rx="2" fill="#8B5E3C" stroke="none"/>
    <ellipse cx="-12" cy="-41" rx="9" ry="15" transform="rotate(-30 -12 -41)"/>
    <ellipse cx="12"  cy="-41" rx="9" ry="15" transform="rotate(30 12 -41)"/>
    <ellipse cx="-14" cy="-19" rx="9" ry="15" transform="rotate(-30 -14 -19)"/>
    <ellipse cx="14"  cy="-19" rx="9" ry="15" transform="rotate(30 14 -19)"/>
    <ellipse cx="-15" cy="4"   rx="9" ry="15" transform="rotate(-30 -15 4)"/>
    <ellipse cx="15"  cy="4"   rx="9" ry="15" transform="rotate(30 15 4)"/>
    <ellipse cx="-16" cy="26"  rx="9" ry="15" transform="rotate(-30 -16 26)"/>
    <ellipse cx="16"  cy="26"  rx="9" ry="15" transform="rotate(30 16 26)"/>
    <ellipse cx="0"   cy="-56" rx="7" ry="14"/>
  </g>
</svg>
