<svg xmlns="http://www.w3.org/2000/svg" viewBox="0 0 512 512" role="img" aria-label="המתבן">
  <defs>
    <linearGradient id="bg" x1="0" y1="0" x2="0" y2="1">
      <stop offset="0" stop-color="#5E8F6E"/>
      <stop offset="1" stop-color="#4A7C59"/>
    </linearGradient>
  </defs>
  <rect width="512" height="512" rx="96" fill="url(#bg)"/>
  <!-- Wheat stem -->
  <g transform="translate(256 256)" fill="#D4A843" stroke="#8B5E3C" stroke-width="6" stroke-linejoin="round">
    <!-- Central stem -->
    <rect x="-6" y="-150" width="12" height="280" rx="4" fill="#8B5E3C" stroke="none"/>
    <!-- Wheat grains in chevron pattern -->
    <g stroke-linecap="round">
      <ellipse cx="-32" cy="-110" rx="22" ry="38" transform="rotate(-30 -32 -110)"/>
      <ellipse cx="32"  cy="-110" rx="22" ry="38" transform="rotate(30 32 -110)"/>
      <ellipse cx="-36" cy="-50"  rx="22" ry="38" transform="rotate(-30 -36 -50)"/>
      <ellipse cx="36"  cy="-50"  rx="22" ry="38" transform="rotate(30 36 -50)"/>
      <ellipse cx="-40" cy="10"   rx="22" ry="38" transform="rotate(-30 -40 10)"/>
      <ellipse cx="40"  cy="10"   rx="22" ry="38" transform="rotate(30 40 10)"/>
      <ellipse cx="-44" cy="70"   rx="22" ry="38" transform="rotate(-30 -44 70)"/>
      <ellipse cx="44"  cy="70"   rx="22" ry="38" transform="rotate(30 44 70)"/>
      <!-- Top tip -->
      <ellipse cx="0" cy="-150" rx="18" ry="36"/>
    </g>
  </g>
</svg>
